<?xml version="1.0" encoding="utf-8"?>
<!-- Generator: Adobe Illustrator 23.0.0, SVG Export Plug-In . SVG Version: 6.00 Build 0)  -->
<svg version="1.1" id="Надпись" xmlns="http://www.w3.org/2000/svg" xmlns:xlink="http://www.w3.org/1999/xlink" x="0px"
	 y="0px" viewBox="0 0 566.93 566.93" style="enable-background:new 0 0 566.93 566.93;" xml:space="preserve">
<style type="text/css">
	.st0{fill:#0078D6;}
</style>
<g>
	<g>
		<path class="st0" d="M82.24,314.64l-24.68-33.75c-1.95-2.67-3.54-5.07-4.78-7.22h-0.2c0.2,3.45,0.29,7.32,0.29,11.61v29.36H33.37
			V244.7h19.9l23.65,32.09c0.29,0.42,0.65,0.93,1.07,1.51c0.42,0.59,0.85,1.19,1.27,1.8c0.42,0.62,0.82,1.22,1.19,1.8
			c0.37,0.58,0.66,1.11,0.85,1.56h0.2c-0.2-1.43-0.29-3.9-0.29-7.41V244.7h19.51v69.94H82.24z"/>
		<path class="st0" d="M114.48,314.64V244.7h43.55v16.48h-22.48v10.19h21.12v16.48h-21.12v10.29h24.09v16.48H114.48z"/>
		<path class="st0" d="M226.75,267.77c0,4.78-1.21,9.02-3.63,12.73c-2.42,3.71-5.88,6.58-10.36,8.61
			c-4.49,2.03-9.71,3.05-15.66,3.05h-6.44v22.48h-21.07V244.7h28.68c9.85,0,17.06,1.87,21.63,5.61
			C224.46,254.05,226.75,259.87,226.75,267.77z M204.46,268.5c0-2.86-0.83-5.02-2.49-6.49c-1.66-1.46-4.1-2.19-7.32-2.19h-4v17.26
			h4.73C201.43,277.09,204.46,274.22,204.46,268.5z"/>
		<path class="st0" d="M270.44,261.19v53.45h-21.17v-53.45h-19.56V244.7h60.52v16.48H270.44z"/>
		<path class="st0" d="M342.48,314.64l-3.07-12.88h-20.87l-3.32,12.88h-22.78l24.09-69.94h26.14l22.68,69.94H342.48z M329.21,259.92
			h-0.49c-0.07,0.78-0.29,2.07-0.68,3.85c-0.39,1.79-2.36,9.46-5.9,23.02h13.36l-4.88-19.02
			C329.94,264.97,329.47,262.36,329.21,259.92z"/>
		<path class="st0" d="M396.71,298.15h31.6v16.48h-58.67v-14.78l32.29-38.68h-30.29V244.7h55.65v14.68L396.71,298.15z"/>
		<path class="st0" d="M437.58,314.64V244.7h21.07v69.94H437.58z"/>
		<path class="st0" d="M516.24,314.64l-3.07-12.88H492.3l-3.32,12.88h-22.78l24.09-69.94h26.14l22.68,69.94H516.24z M502.98,259.92
			h-0.49c-0.07,0.78-0.29,2.07-0.68,3.85c-0.39,1.79-2.36,9.46-5.9,23.02h13.36l-4.88-19.02
			C503.71,264.97,503.24,262.36,502.98,259.92z"/>
	</g>
</g>
</svg>
